# xmcd
#
# Track frame offsets:
#	183
#	26133
#	49170
#	68708
#	95670
#	115395
#	137820
#	156883
#	192458
#	208820
#	216758
#
# Disc length: 3254 seconds
#
# Revision: 2
# Processed by: cddbd v1.4PL0 Copyright (c) Steve Scherf et al.
# Submitted via: EasyCDDAExtractor 4.6.0.1
#
DISCID=ab0cb40b
DTITLE=Walter Trout - Prisoner of a dream
DYEAR=1990
DGENRE=Blues
TTITLE0=Prisoner of a dream
TTITLE1=The love that we once knew
TTITLE2=Sweet as a flower
TTITLE3=Love in vain
TTITLE4=Victor the cajun
TTITLE5=Girl from the North Country
TTITLE6=False alarm
TTITLE7=Say goodbye to the blues
TTITLE8=You're the one
TTITLE9=Earrings on the table
TTITLE10=Tribute to Muddy Waters
EXTD=
EXTT0=
EXTT1=
EXTT2=
EXTT3=
EXTT4=
EXTT5=
EXTT6=
EXTT7=
EXTT8=
EXTT9=
EXTT10=
PLAYORDER=
